<?xml version="1.0" standalone="no"?>
<!DOCTYPE svg PUBLIC "-//W3C//DTD SVG 20010904//EN"
 "http://www.w3.org/TR/2001/REC-SVG-20010904/DTD/svg10.dtd">
<svg version="1.0" xmlns="http://www.w3.org/2000/svg"
 width="1003.000000pt" height="1003.000000pt" viewBox="0 0 1003.000000 1003.000000"
 preserveAspectRatio="xMidYMid meet">
<metadata>
Created by potrace 1.16, written by Peter Selinger 2001-2019
</metadata>
<g transform="translate(0.000000,1003.000000) scale(0.100000,-0.100000)"
fill="#000000" stroke="none">
<path d="M4532 9318 c-12 -6 -211 -222 -442 -480 -231 -258 -422 -469 -426
-469 -3 0 -133 190 -288 423 -227 342 -289 429 -324 453 l-44 30 -1386 3
c-1305 2 -1389 1 -1422 -15 -20 -10 -43 -33 -52 -53 -17 -33 -18 -255 -18
-4200 0 -3945 1 -4167 18 -4200 l17 -35 611 -3 612 -2 18 27 c18 27 19 103 24
2380 l5 2353 335 -518 c184 -284 817 -1263 1407 -2174 590 -912 1073 -1661
1073 -1666 0 -4 -54 -97 -119 -205 l-120 -197 1175 0 c938 0 1174 3 1168 12
-4 7 -152 234 -329 503 -518 791 -580 887 -578 894 1 5 683 1133 1295 2141
l154 255 842 3 842 2 0 -1872 c0 -1851 0 -1873 20 -1906 l20 -32 611 2 612 3
18 35 c18 34 19 152 19 4225 0 4045 -1 4192 -18 4225 -39 73 1 70 -837 70
l-750 0 -1265 -2069 c-945 -1547 -1268 -2067 -1276 -2058 -6 7 -123 183 -259
392 -137 209 -545 832 -907 1384 -569 866 -657 1005 -646 1019 7 9 247 278
533 597 625 698 585 651 585 675 0 11 -9 29 -20 40 -19 19 -33 20 -242 19
-140 0 -231 -4 -246 -11z m-2597 -1095 c248 -384 500 -774 560 -868 l111 -170
-555 -620 c-304 -341 -569 -636 -587 -655 l-34 -35 0 1523 0 1522 28 0 c25 0
62 -54 477 -697z m6645 -903 l0 -1550 -747 -2 c-745 -3 -748 -3 -788 -25 -22
-11 -52 -34 -67 -50 -15 -15 -109 -172 -209 -348 -274 -484 -1621 -2707 -1633
-2695 -5 5 -469 710 -1030 1567 -810 1236 -1030 1564 -1063 1589 -24 18 -64
37 -93 43 -33 7 -214 11 -501 11 l-451 0 27 33 c20 23 725 811 810 905 10 11
24 -5 72 -80 670 -1039 2041 -3150 2061 -3172 41 -43 98 -66 170 -66 75 0 123
21 173 77 19 21 761 1225 1649 2676 888 1450 1616 2637 1618 2637 1 0 2 -697
2 -1550z"/>
</g>
</svg>
